<svg xmlns="http://www.w3.org/2000/svg" xmlns:xlink="http://www.w3.org/1999/xlink" viewBox="0 0 270.75 252.86"><defs><style>.cls-1{fill:url(#linear-gradient);}.cls-2{fill:url(#linear-gradient-2);}.cls-3{fill:url(#linear-gradient-3);}.cls-4{fill:url(#linear-gradient-4);}.cls-5{fill:url(#linear-gradient-5);}.cls-6{fill:url(#linear-gradient-6);}.cls-7{fill:url(#linear-gradient-7);}.cls-8{fill:url(#linear-gradient-8);}.cls-9{fill:url(#linear-gradient-9);}.cls-10{fill:url(#linear-gradient-10);}.cls-11{fill:url(#linear-gradient-11);}.cls-12{fill:url(#linear-gradient-12);}.cls-13{fill:url(#linear-gradient-13);}.cls-14{fill:url(#linear-gradient-14);}.cls-15{fill:url(#linear-gradient-15);}.cls-16{fill:#222526;}</style><linearGradient id="linear-gradient" x1="199.98" y1="41.77" x2="199.98" y2="133.15" gradientUnits="userSpaceOnUse"><stop offset="0" stop-color="#7f3790"/><stop offset="0.31" stop-color="#903e94"/><stop offset="0.66" stop-color="#9d4396"/><stop offset="1" stop-color="#a14597"/></linearGradient><linearGradient id="linear-gradient-2" x1="143.01" y1="166.04" x2="143.01" y2="107.49" gradientUnits="userSpaceOnUse"><stop offset="0" stop-color="#0087bf"/><stop offset="0.01" stop-color="#0088bf"/><stop offset="0.35" stop-color="#009ccc"/><stop offset="0.68" stop-color="#00a9d3"/><stop offset="1" stop-color="#00add6"/></linearGradient><linearGradient id="linear-gradient-3" x1="171.49" y1="58.18" x2="171.49" y2="149.56" xlink:href="#linear-gradient"/><linearGradient id="linear-gradient-4" x1="120.38" y1="25.12" x2="207.34" y2="25.12" xlink:href="#linear-gradient"/><linearGradient id="linear-gradient-5" x1="91.9" y1="41.52" x2="178.86" y2="41.52" xlink:href="#linear-gradient"/><linearGradient id="linear-gradient-6" x1="63.41" y1="57.92" x2="150.37" y2="57.92" xlink:href="#linear-gradient-2"/><linearGradient id="linear-gradient-7" x1="135.64" y1="99.5" x2="63.68" y2="99.5" xlink:href="#linear-gradient-2"/><linearGradient id="linear-gradient-8" x1="70.67" y1="95.08" x2="70.67" y2="41.36" xlink:href="#linear-gradient-2"/><linearGradient id="linear-gradient-9" x1="63.68" y1="141.15" x2="135.65" y2="141.15" xlink:href="#linear-gradient-2"/><linearGradient id="linear-gradient-10" x1="99.19" y1="24.96" x2="99.19" y2="41.69" xlink:href="#linear-gradient"/><linearGradient id="linear-gradient-11" x1="127.67" y1="8.54" x2="127.67" y2="25.28" xlink:href="#linear-gradient"/><linearGradient id="linear-gradient-12" x1="195.98" y1="130.52" x2="181.71" y2="116.25" xlink:href="#linear-gradient"/><linearGradient id="linear-gradient-13" x1="167.13" y1="146.57" x2="152.86" y2="132.3" xlink:href="#linear-gradient"/><linearGradient id="linear-gradient-14" x1="63.96" y1="223.6" x2="122.49" y2="223.6" xlink:href="#linear-gradient-2"/><linearGradient id="linear-gradient-15" x1="104.96" y1="223.6" x2="163.49" y2="223.6" xlink:href="#linear-gradient"/></defs><title>Asset 5</title><g id="Layer_2" data-name="Layer 2"><g id="Layer_3" data-name="Layer 3"><polygon class="cls-1" points="192.62 133.15 207.34 124.7 207.34 41.77 192.61 50.25 192.61 133.15 192.62 133.15"/><polygon class="cls-2" points="135.65 166.04 150.37 157.59 150.37 107.49 135.64 115.97 135.64 166.04 135.65 166.04"/><polygon class="cls-3" points="164.14 149.56 178.86 141.12 178.86 58.18 164.13 66.66 164.13 149.56 164.14 149.56"/><polygon class="cls-4" points="207.34 41.77 192.61 50.25 120.38 8.56 135.2 0 207.34 41.77"/><polygon class="cls-5" points="178.86 58.16 164.13 66.64 91.9 24.96 106.71 16.39 178.86 58.16"/><polygon class="cls-6" points="150.37 74.56 135.64 83.04 63.41 41.36 78.22 32.8 150.37 74.56"/><polygon class="cls-7" points="63.69 124.45 135.64 83.04 120.92 74.55 63.69 107.44 63.69 124.45"/><polygon class="cls-8" points="63.41 41.36 63.69 95.08 77.93 87.46 77.93 49.74 63.41 41.36"/><polygon class="cls-9" points="63.69 124.45 135.65 166.04 135.64 149.06 77.93 116.26 63.69 124.45"/><polygon class="cls-10" points="91.9 24.96 91.9 33.25 106.48 41.7 106.48 33.37 91.9 24.96"/><polygon class="cls-11" points="120.38 8.54 120.38 16.84 134.96 25.28 134.96 16.96 120.38 8.54"/><polygon class="cls-12" points="192.61 133.15 184.24 128.78 184.24 112.98 192.61 117.16 192.61 133.15"/><polygon class="cls-13" points="164.13 149.56 155.76 145.19 155.76 129.39 164.13 133.57 164.13 149.56"/><path class="cls-14" d="M95,252.86H73.46a9.5,9.5,0,0,1-9.5-9.5V203.84a9.5,9.5,0,0,1,9.5-9.5H113a9.5,9.5,0,0,1,9.5,9.5v34.89a3.37,3.37,0,0,1-6.74,0V205.61a4.53,4.53,0,0,0-4.53-4.53h-36a4.53,4.53,0,0,0-4.53,4.53v36a4.53,4.53,0,0,0,4.53,4.53H97.59a3.37,3.37,0,1,1,0,6.74Z"/><path class="cls-15" d="M132.48,194.34H154a9.5,9.5,0,0,1,9.5,9.5v39.53a9.5,9.5,0,0,1-9.5,9.5H114.46a9.5,9.5,0,0,1-9.5-9.5V208.5a3.37,3.37,0,0,1,6.74,0v33.09a4.53,4.53,0,0,0,4.53,4.53h36a4.53,4.53,0,0,0,4.53-4.53v-36a4.53,4.53,0,0,0-4.53-4.53H129.91a3.37,3.37,0,1,1,0-6.74Z"/><polygon class="cls-16" points="9.59 246.13 57.23 246.13 57.23 252.86 0 252.86 0 246.13 0 245.66 48.16 192.36 47.83 192.36 0 192.36 0 185.62 57.23 185.62 57.23 191.56 57.23 192.37 8.66 246.13 9.59 246.13"/><path class="cls-16" d="M215.83,241.78a15.11,15.11,0,0,1-3.91,5.56,16.77,16.77,0,0,1-6.07,3.4,25.34,25.34,0,0,1-7.86,1.15H173.18V186.45h24.08a24,24,0,0,1,7.54,1.15,17.26,17.26,0,0,1,6,3.35,15.46,15.46,0,0,1,4,5.38,17.44,17.44,0,0,1,1.42,7.21,15.91,15.91,0,0,1-2.71,9.14,14,14,0,0,1-7.49,5.56,15.91,15.91,0,0,1,11.21,15.81A20,20,0,0,1,215.83,241.78Zm-5.74-44a10.66,10.66,0,0,0-3.12-3.91,13.42,13.42,0,0,0-4.64-2.25,21,21,0,0,0-5.61-.73H178.15v25.37h18.57a21,21,0,0,0,5.61-.74,13.37,13.37,0,0,0,4.64-2.25,10.64,10.64,0,0,0,3.12-3.91,15.17,15.17,0,0,0,0-11.58Zm-1.88,26.42q-4-3.54-10.75-3.54h-19.3v26.84h19.3q6.71,0,10.75-3.54t4-9.88Q212.24,227.71,208.2,224.17Z"/><path class="cls-16" d="M198,252.86H172.21v-67.4h25.06a25.12,25.12,0,0,1,7.84,1.2,18.32,18.32,0,0,1,6.36,3.55,16.5,16.5,0,0,1,4.2,5.71,18.49,18.49,0,0,1,1.51,7.62,17,17,0,0,1-2.88,9.69,14.82,14.82,0,0,1-5.73,5,16.79,16.79,0,0,1,6.49,5.4,17.56,17.56,0,0,1,3.12,10.4,21,21,0,0,1-1.45,8.1,16.14,16.14,0,0,1-4.16,5.92,17.82,17.82,0,0,1-6.42,3.6A26.42,26.42,0,0,1,198,252.86Zm-23.84-2H198a24.5,24.5,0,0,0,7.56-1.1,15.88,15.88,0,0,0,5.72-3.2,14.21,14.21,0,0,0,3.65-5.21h0a19.09,19.09,0,0,0,1.3-7.34,14.94,14.94,0,0,0-10.55-14.88l-2.75-1,2.77-.9a13.14,13.14,0,0,0,7-5.18,15,15,0,0,0,2.54-8.6,16.54,16.54,0,0,0-1.34-6.81,14.55,14.55,0,0,0-3.7-5,16.35,16.35,0,0,0-5.68-3.16,23.13,23.13,0,0,0-7.23-1.1h-23.1Zm23.28-2.45H177.17V219.66h20.28c4.69,0,8.53,1.27,11.4,3.78h0c2.9,2.54,4.38,6.12,4.38,10.62s-1.47,8.08-4.38,10.62S202.14,248.45,197.45,248.45Zm-18.32-2h18.32c4.21,0,7.61-1.11,10.11-3.3s3.71-5.17,3.71-9.14-1.21-7-3.71-9.14h0c-2.5-2.19-5.9-3.3-10.11-3.3H179.13Zm17.59-29.29H177.17V189.88h19.54a22.1,22.1,0,0,1,5.87.77,14.46,14.46,0,0,1,5,2.42,11.69,11.69,0,0,1,3.41,4.26h0a16.13,16.13,0,0,1,0,12.43,11.67,11.67,0,0,1-3.41,4.26,14.4,14.4,0,0,1-5,2.42A22,22,0,0,1,196.71,217.2Zm-17.59-2h17.59a20.09,20.09,0,0,0,5.35-.7,12.46,12.46,0,0,0,4.31-2.08,9.72,9.72,0,0,0,2.84-3.55,14.21,14.21,0,0,0,0-10.73,9.75,9.75,0,0,0-2.84-3.55,12.52,12.52,0,0,0-4.31-2.08,20.13,20.13,0,0,0-5.35-.7H179.13Z"/><path class="cls-16" d="M266.89,240.93a20.84,20.84,0,0,1-4.74,5.91,20.5,20.5,0,0,1-6.5,3.75,23.32,23.32,0,0,1-7.9,1.31,22.71,22.71,0,0,1-8.76-1.72,22.21,22.21,0,0,1-7.31-4.88,18.81,18.81,0,0,1-3.39-4.47,19.1,19.1,0,0,1-1.81-5.28,41,41,0,0,1-.68-7q-.09-4-.09-9.39t.09-9.35a40.7,40.7,0,0,1,.68-6.91,19.79,19.79,0,0,1,1.81-5.33,18.45,18.45,0,0,1,3.39-4.51,22.25,22.25,0,0,1,7.31-4.88,22.71,22.71,0,0,1,8.76-1.72,23.57,23.57,0,0,1,8,1.31,20,20,0,0,1,6.46,3.75,21.28,21.28,0,0,1,4.7,5.91,26.35,26.35,0,0,1,2.71,7.81h-5a18.78,18.78,0,0,0-5.91-10.56,16.14,16.14,0,0,0-11-3.88,17.59,17.59,0,0,0-6.59,1.26,16.53,16.53,0,0,0-5.6,3.7,14.56,14.56,0,0,0-2.71,3.66,16.87,16.87,0,0,0-1.49,4.6,43.76,43.76,0,0,0-.63,6.32q-.14,3.66-.14,8.8t.14,8.8a43.76,43.76,0,0,0,.63,6.32,16.84,16.84,0,0,0,1.49,4.6,14.51,14.51,0,0,0,2.71,3.66,16.5,16.5,0,0,0,5.6,3.7,17.57,17.57,0,0,0,6.59,1.26,16.48,16.48,0,0,0,11.06-3.88,18.53,18.53,0,0,0,6-10.56h4.79A26.32,26.32,0,0,1,266.89,240.93Z"/><path class="cls-16" d="M247.74,252.86a23.77,23.77,0,0,1-9.12-1.79A23.24,23.24,0,0,1,231,246a19.83,19.83,0,0,1-3.56-4.7,20.16,20.16,0,0,1-1.9-5.55,42.19,42.19,0,0,1-.7-7.12c-.06-2.64-.09-5.81-.09-9.41s0-6.75.09-9.37a41.93,41.93,0,0,1,.7-7.07,20.88,20.88,0,0,1,1.9-5.58,19.5,19.5,0,0,1,3.56-4.75,23.32,23.32,0,0,1,7.63-5.08,23.78,23.78,0,0,1,9.12-1.79,24.62,24.62,0,0,1,8.32,1.37,21,21,0,0,1,6.76,3.93,22.33,22.33,0,0,1,4.91,6.18,27.44,27.44,0,0,1,2.81,8.09l.21,1.14h-6.9l-.16-.76a17.92,17.92,0,0,0-5.61-10,15.28,15.28,0,0,0-10.34-3.65,16.71,16.71,0,0,0-6.23,1.2,15.67,15.67,0,0,0-5.28,3.49,13.66,13.66,0,0,0-2.53,3.42,16,16,0,0,0-1.4,4.34,43,43,0,0,0-.62,6.18c-.09,2.41-.13,5.36-.13,8.77s0,6.35.13,8.77a43,43,0,0,0,.62,6.18,16,16,0,0,0,1.4,4.34,13.64,13.64,0,0,0,2.53,3.41,15.63,15.63,0,0,0,5.28,3.49,16.69,16.69,0,0,0,6.23,1.2A15.62,15.62,0,0,0,258.18,243a17.67,17.67,0,0,0,5.69-10l.16-.76h6.72l-.21,1.14a27.37,27.37,0,0,1-2.81,8.09h0a21.9,21.9,0,0,1-5,6.19,21.56,21.56,0,0,1-6.8,3.92A24.37,24.37,0,0,1,247.74,252.86Zm0-65.37a21.87,21.87,0,0,0-8.39,1.64,21.42,21.42,0,0,0-7,4.67,17.58,17.58,0,0,0-3.21,4.28,18.9,18.9,0,0,0-1.72,5.07,39.92,39.92,0,0,0-.66,6.74c-.06,2.6-.09,5.74-.09,9.32s0,6.74.09,9.37a40.19,40.19,0,0,0,.66,6.79,18.21,18.21,0,0,0,1.71,5,17.93,17.93,0,0,0,3.22,4.24,21.34,21.34,0,0,0,7,4.67,21.86,21.86,0,0,0,8.39,1.64,22.47,22.47,0,0,0,7.58-1.25,19.63,19.63,0,0,0,6.2-3.57,20,20,0,0,0,4.52-5.65h0a24.88,24.88,0,0,0,2.37-6.39h-2.84a19.31,19.31,0,0,1-6.15,10.34,17.49,17.49,0,0,1-11.68,4.11,18.63,18.63,0,0,1-6.95-1.33,17.54,17.54,0,0,1-5.92-3.92,15.55,15.55,0,0,1-2.89-3.9,17.9,17.9,0,0,1-1.58-4.87,44.85,44.85,0,0,1-.65-6.46c-.09-2.44-.14-5.41-.14-8.84s0-6.4.14-8.84a44.87,44.87,0,0,1,.65-6.46A17.91,17.91,0,0,1,232,199a15.58,15.58,0,0,1,2.88-3.9,17.57,17.57,0,0,1,5.92-3.92,18.63,18.63,0,0,1,6.95-1.33,17.15,17.15,0,0,1,11.6,4.12,19.53,19.53,0,0,1,6,10.33h3A24.93,24.93,0,0,0,266,198a20.43,20.43,0,0,0-4.48-5.65,19.14,19.14,0,0,0-6.15-3.57A22.72,22.72,0,0,0,247.74,187.49Z"/></g></g></svg>