<svg xmlns="http://www.w3.org/2000/svg" xmlns:xlink="http://www.w3.org/1999/xlink" viewBox="0 0 143.93 166.04"><defs><style>.cls-1{fill:url(#linear-gradient);}.cls-2{fill:url(#linear-gradient-2);}.cls-3{fill:url(#linear-gradient-3);}.cls-4{fill:url(#linear-gradient-4);}.cls-5{fill:url(#linear-gradient-5);}.cls-6{fill:url(#linear-gradient-6);}.cls-7{fill:url(#linear-gradient-7);}.cls-8{fill:url(#linear-gradient-8);}.cls-9{fill:url(#linear-gradient-9);}.cls-10{fill:url(#linear-gradient-10);}.cls-11{fill:url(#linear-gradient-11);}.cls-12{fill:url(#linear-gradient-12);}.cls-13{fill:url(#linear-gradient-13);}</style><linearGradient id="linear-gradient" x1="136.57" y1="41.77" x2="136.57" y2="133.15" gradientUnits="userSpaceOnUse"><stop offset="0" stop-color="#7f3790"/><stop offset="0.31" stop-color="#903e94"/><stop offset="0.66" stop-color="#9d4396"/><stop offset="1" stop-color="#a14597"/></linearGradient><linearGradient id="linear-gradient-2" x1="79.59" y1="166.04" x2="79.59" y2="107.49" gradientUnits="userSpaceOnUse"><stop offset="0" stop-color="#0087bf"/><stop offset="0.01" stop-color="#0088bf"/><stop offset="0.35" stop-color="#009ccc"/><stop offset="0.68" stop-color="#00a9d3"/><stop offset="1" stop-color="#00add6"/></linearGradient><linearGradient id="linear-gradient-3" x1="108.08" y1="58.18" x2="108.08" y2="149.56" xlink:href="#linear-gradient"/><linearGradient id="linear-gradient-4" x1="56.97" y1="25.12" x2="143.93" y2="25.12" xlink:href="#linear-gradient"/><linearGradient id="linear-gradient-5" x1="28.49" y1="41.52" x2="115.45" y2="41.52" xlink:href="#linear-gradient"/><linearGradient id="linear-gradient-6" x1="0" y1="57.92" x2="86.96" y2="57.92" xlink:href="#linear-gradient-2"/><linearGradient id="linear-gradient-7" x1="72.23" y1="99.5" x2="0.27" y2="99.5" xlink:href="#linear-gradient-2"/><linearGradient id="linear-gradient-8" x1="7.26" y1="95.08" x2="7.26" y2="41.36" xlink:href="#linear-gradient-2"/><linearGradient id="linear-gradient-9" x1="0.27" y1="141.15" x2="72.24" y2="141.15" xlink:href="#linear-gradient-2"/><linearGradient id="linear-gradient-10" x1="35.78" y1="24.96" x2="35.78" y2="41.69" xlink:href="#linear-gradient"/><linearGradient id="linear-gradient-11" x1="64.26" y1="8.54" x2="64.26" y2="25.28" xlink:href="#linear-gradient"/><linearGradient id="linear-gradient-12" x1="132.57" y1="130.52" x2="118.3" y2="116.25" xlink:href="#linear-gradient"/><linearGradient id="linear-gradient-13" x1="103.71" y1="146.57" x2="89.44" y2="132.3" xlink:href="#linear-gradient"/></defs><title>Asset 4</title><g id="Layer_2" data-name="Layer 2"><g id="Layer_3" data-name="Layer 3"><polygon class="cls-1" points="129.21 133.15 143.93 124.7 143.93 41.77 129.2 50.25 129.2 133.15 129.21 133.15"/><polygon class="cls-2" points="72.24 166.04 86.96 157.59 86.96 107.49 72.23 115.97 72.23 166.04 72.24 166.04"/><polygon class="cls-3" points="100.72 149.56 115.45 141.12 115.45 58.18 100.72 66.66 100.72 149.56 100.72 149.56"/><polygon class="cls-4" points="143.93 41.77 129.2 50.25 56.97 8.56 71.79 0 143.93 41.77"/><polygon class="cls-5" points="115.45 58.16 100.72 66.64 28.49 24.96 43.3 16.39 115.45 58.16"/><polygon class="cls-6" points="86.96 74.56 72.23 83.04 0 41.36 14.81 32.8 86.96 74.56"/><polygon class="cls-7" points="0.27 124.45 72.23 83.04 57.51 74.55 0.27 107.44 0.27 124.45"/><polygon class="cls-8" points="0 41.36 0.27 95.08 14.52 87.46 14.52 49.74 0 41.36"/><polygon class="cls-9" points="0.27 124.45 72.24 166.04 72.23 149.06 14.52 116.26 0.27 124.45"/><polygon class="cls-10" points="28.49 24.96 28.49 33.25 43.06 41.7 43.06 33.37 28.49 24.96"/><polygon class="cls-11" points="56.97 8.54 56.97 16.84 71.55 25.28 71.55 16.96 56.97 8.54"/><polygon class="cls-12" points="129.2 133.15 120.83 128.78 120.83 112.98 129.2 117.16 129.2 133.15"/><polygon class="cls-13" points="100.72 149.56 92.35 145.19 92.35 129.39 100.72 133.57 100.72 149.56"/></g></g></svg>